<mxfile host="app.diagrams.net" modified="2023-01-22T10:20:24.342Z" agent="5.0 (Windows NT 10.0; Win64; x64) AppleWebKit/537.36 (KHTML, like Gecko) Chrome/109.0.0.0 Safari/537.36" etag="NJ-VIXvjI4a2XAGJAWFz" version="20.8.5" type="github">
  <diagram id="ijDXPIjG-lrnuMKF2Y2p" name="Page-1">
    <mxGraphModel dx="1050" dy="590" grid="1" gridSize="10" guides="1" tooltips="1" connect="1" arrows="1" fold="1" page="1" pageScale="1" pageWidth="850" pageHeight="1100" math="0" shadow="0">
      <root>
        <mxCell id="0" />
        <mxCell id="1" parent="0" />
        <mxCell id="UWq0jJDnpb61mctzoSnv-1" value="" style="endArrow=none;html=1;rounded=0;" parent="1" edge="1">
          <mxGeometry width="50" height="50" relative="1" as="geometry">
            <mxPoint x="120" y="270" as="sourcePoint" />
            <mxPoint x="120" y="80" as="targetPoint" />
          </mxGeometry>
        </mxCell>
        <mxCell id="UWq0jJDnpb61mctzoSnv-2" value="" style="endArrow=none;html=1;rounded=0;" parent="1" edge="1">
          <mxGeometry width="50" height="50" relative="1" as="geometry">
            <mxPoint x="240" y="270" as="sourcePoint" />
            <mxPoint x="240" y="80" as="targetPoint" />
          </mxGeometry>
        </mxCell>
        <mxCell id="UWq0jJDnpb61mctzoSnv-3" value="" style="endArrow=none;html=1;rounded=0;" parent="1" target="UWq0jJDnpb61mctzoSnv-4" edge="1">
          <mxGeometry width="50" height="50" relative="1" as="geometry">
            <mxPoint x="360" y="270" as="sourcePoint" />
            <mxPoint x="360" y="80" as="targetPoint" />
          </mxGeometry>
        </mxCell>
        <mxCell id="UWq0jJDnpb61mctzoSnv-4" value="MME" style="rounded=0;whiteSpace=wrap;html=1;" parent="1" vertex="1">
          <mxGeometry x="320" y="50" width="80" height="30" as="geometry" />
        </mxCell>
        <mxCell id="UWq0jJDnpb61mctzoSnv-5" value="eNB" style="rounded=0;whiteSpace=wrap;html=1;" parent="1" vertex="1">
          <mxGeometry x="200" y="50" width="80" height="30" as="geometry" />
        </mxCell>
        <mxCell id="UWq0jJDnpb61mctzoSnv-6" value="UE" style="rounded=0;whiteSpace=wrap;html=1;" parent="1" vertex="1">
          <mxGeometry x="80" y="50" width="80" height="30" as="geometry" />
        </mxCell>
        <mxCell id="UWq0jJDnpb61mctzoSnv-7" value="" style="endArrow=classic;html=1;rounded=0;" parent="1" edge="1">
          <mxGeometry width="50" height="50" relative="1" as="geometry">
            <mxPoint x="120" y="120" as="sourcePoint" />
            <mxPoint x="360" y="120" as="targetPoint" />
          </mxGeometry>
        </mxCell>
        <mxCell id="UWq0jJDnpb61mctzoSnv-8" value="1." style="edgeLabel;html=1;align=center;verticalAlign=middle;resizable=0;points=[];" parent="UWq0jJDnpb61mctzoSnv-7" vertex="1" connectable="0">
          <mxGeometry x="0.3267" y="-1" relative="1" as="geometry">
            <mxPoint x="-89" y="-11" as="offset" />
          </mxGeometry>
        </mxCell>
        <mxCell id="UWq0jJDnpb61mctzoSnv-9" value="" style="endArrow=classic;html=1;rounded=0;strokeColor=#1A1A1A;" parent="1" edge="1">
          <mxGeometry width="50" height="50" relative="1" as="geometry">
            <mxPoint x="360" y="160" as="sourcePoint" />
            <mxPoint x="120" y="160" as="targetPoint" />
          </mxGeometry>
        </mxCell>
        <mxCell id="UWq0jJDnpb61mctzoSnv-10" value="2." style="edgeLabel;html=1;align=center;verticalAlign=middle;resizable=0;points=[];" parent="UWq0jJDnpb61mctzoSnv-9" vertex="1" connectable="0">
          <mxGeometry x="0.3267" y="-1" relative="1" as="geometry">
            <mxPoint x="69" y="-9" as="offset" />
          </mxGeometry>
        </mxCell>
        <mxCell id="UWq0jJDnpb61mctzoSnv-13" value="" style="endArrow=classic;html=1;rounded=0;strokeColor=#1A1A1A;dashed=1;" parent="1" edge="1">
          <mxGeometry width="50" height="50" relative="1" as="geometry">
            <mxPoint x="360" y="200" as="sourcePoint" />
            <mxPoint x="240" y="200" as="targetPoint" />
          </mxGeometry>
        </mxCell>
        <mxCell id="UWq0jJDnpb61mctzoSnv-14" value="3." style="edgeLabel;html=1;align=center;verticalAlign=middle;resizable=0;points=[];" parent="UWq0jJDnpb61mctzoSnv-13" vertex="1" connectable="0">
          <mxGeometry x="0.3267" y="-1" relative="1" as="geometry">
            <mxPoint x="40" y="-9" as="offset" />
          </mxGeometry>
        </mxCell>
        <mxCell id="UWq0jJDnpb61mctzoSnv-15" value="" style="endArrow=classic;html=1;rounded=0;strokeColor=#1A1A1A;dashed=1;" parent="1" edge="1">
          <mxGeometry width="50" height="50" relative="1" as="geometry">
            <mxPoint x="240" y="240" as="sourcePoint" />
            <mxPoint x="360" y="240" as="targetPoint" />
          </mxGeometry>
        </mxCell>
        <mxCell id="UWq0jJDnpb61mctzoSnv-16" value="4." style="edgeLabel;html=1;align=center;verticalAlign=middle;resizable=0;points=[];" parent="UWq0jJDnpb61mctzoSnv-15" vertex="1" connectable="0">
          <mxGeometry x="0.3267" y="-1" relative="1" as="geometry">
            <mxPoint x="-40" y="-11" as="offset" />
          </mxGeometry>
        </mxCell>
        <mxCell id="i_nnzmHdUOK7gu60jdM--1" value="" style="endArrow=none;html=1;rounded=0;strokeColor=#1A1A1A;" parent="1" edge="1">
          <mxGeometry width="50" height="50" relative="1" as="geometry">
            <mxPoint x="100" y="270" as="sourcePoint" />
            <mxPoint x="140" y="270" as="targetPoint" />
          </mxGeometry>
        </mxCell>
        <mxCell id="i_nnzmHdUOK7gu60jdM--2" value="" style="endArrow=none;html=1;rounded=0;strokeColor=#1A1A1A;" parent="1" edge="1">
          <mxGeometry width="50" height="50" relative="1" as="geometry">
            <mxPoint x="340" y="270" as="sourcePoint" />
            <mxPoint x="380" y="270" as="targetPoint" />
          </mxGeometry>
        </mxCell>
        <mxCell id="i_nnzmHdUOK7gu60jdM--3" value="" style="endArrow=none;html=1;rounded=0;strokeColor=#1A1A1A;" parent="1" edge="1">
          <mxGeometry width="50" height="50" relative="1" as="geometry">
            <mxPoint x="220" y="270" as="sourcePoint" />
            <mxPoint x="260" y="270" as="targetPoint" />
          </mxGeometry>
        </mxCell>
      </root>
    </mxGraphModel>
  </diagram>
</mxfile>
